<svg width="500" height="500" viewBox="0 0 500 500" fill="none" xmlns="http://www.w3.org/2000/svg">
<rect width="500" height="500" rx="80" fill="url(#paint0_radial_11_27)"/>
<path d="M166.02 238.157C158.944 240.36 150.799 241.461 141.587 241.461C122.361 241.461 107.674 235.72 97.5269 224.238C85.2436 210.419 81.9725 190.125 87.7136 163.355C93.388 136.385 105.504 115.991 124.063 102.172C139.217 90.8902 156.273 85.2492 175.232 85.2492C194.325 85.2492 209.078 91.224 219.492 103.173C231.509 116.992 234.88 136.318 229.606 161.152C226.802 174.303 222.864 185.318 217.79 194.197C213.384 202.675 208.043 209.718 201.768 215.326L215.387 231.247L195.76 248.07L181.441 231.247C175.366 234.518 170.225 236.821 166.02 238.157ZM153.202 197.301L172.629 180.679L184.545 194.898C187.883 190.091 190.386 185.886 192.055 182.281C194.725 176.873 196.828 170.565 198.364 163.355C201.835 146.799 201.134 134.015 196.261 125.003C191.454 115.924 182.542 111.385 169.525 111.385C157.308 111.385 146.627 115.724 137.481 124.402C128.402 133.081 122.027 146.065 118.355 163.355C114.016 183.583 116.119 198.069 124.664 206.814C130.205 212.488 137.681 215.326 147.094 215.326C150.632 215.326 154.137 214.892 157.608 214.024C159.544 213.557 162.014 212.722 165.018 211.52L153.202 197.301ZM326.638 229.445C326.704 225.306 327.172 221.067 328.04 216.727L330.743 203.009C332.612 193.596 332.212 187.321 329.542 184.183C326.938 181.046 321.097 179.477 312.018 179.477H280.175L267.958 237.355H237.817L269.16 89.7553H341.558C351.838 89.9556 359.516 91.224 364.589 93.5605C369.663 95.897 373.668 99.335 376.605 103.874C379.009 107.613 380.644 111.752 381.512 116.291C382.447 120.831 382.313 126.004 381.111 131.812C379.576 138.822 376.305 145.731 371.298 152.54C366.358 159.283 359.516 164.056 350.77 166.86C356.979 169.597 360.951 173.502 362.687 178.576C364.489 183.583 364.289 191.26 362.086 201.607L359.983 211.52C358.581 218.263 357.88 222.836 357.88 225.239C357.88 229.044 359.148 231.848 361.685 233.65L360.984 237.355H327.038C326.771 234.084 326.638 231.447 326.638 229.445ZM329.642 115.39H293.793L285.382 155.044H320.329C327.272 155.044 332.646 154.243 336.451 152.641C343.193 149.837 347.466 144.296 349.268 136.018C351.138 127.073 349.435 121.064 344.161 117.994C341.157 116.258 336.317 115.39 329.642 115.39ZM383.615 193.696L389.423 166.66H446.901L441.093 193.696H383.615ZM122.06 376.822C124.397 375.02 126.7 372.516 128.97 369.312H158.109C155.973 375.787 151.2 382.363 143.79 389.039C132.174 399.653 117.955 404.96 101.132 404.96C87.2463 404.96 75.9309 400.488 67.1857 391.542C58.5073 382.597 56.3043 368.044 60.5768 347.883C64.5822 328.991 72.4262 314.504 84.1087 304.424C95.858 294.344 109.376 289.304 124.664 289.304C133.743 289.304 141.553 291.006 148.095 294.41C154.704 297.815 159.578 303.189 162.715 310.532C165.653 317.008 166.821 324.518 166.22 333.063C165.953 338.07 164.751 345.279 162.615 354.692H87.9139C85.9779 365.64 87.7803 373.317 93.3212 377.723C96.659 380.46 101.098 381.829 106.639 381.829C112.514 381.829 117.654 380.16 122.06 376.822ZM119.657 312.835C113.048 312.835 107.474 314.905 102.934 319.044C98.4615 323.183 95.0235 328.79 92.6202 335.867H136.98C138.115 328.323 137.014 322.615 133.676 318.743C130.405 314.805 125.732 312.835 119.657 312.835ZM228.905 334.965C234.379 334.298 238.351 333.463 240.821 332.462C245.227 330.726 247.831 328.023 248.632 324.351C249.566 319.878 248.665 316.807 245.928 315.139C243.191 313.403 238.819 312.535 232.81 312.535C226.068 312.535 220.928 314.204 217.389 317.542C214.919 320.012 212.883 323.35 211.281 327.555H183.744C186.414 318.009 190.753 310.165 196.761 304.023C206.375 294.41 220.36 289.604 238.718 289.604C250.668 289.604 260.782 291.974 269.06 296.714C277.337 301.453 280.074 310.399 277.271 323.55L266.556 373.618C265.822 377.089 265.021 381.295 264.153 386.235C263.552 389.973 263.552 392.51 264.153 393.845C264.82 395.18 265.989 396.282 267.658 397.15L266.857 401.355H235.814C235.414 399.152 235.247 397.083 235.314 395.147C235.381 393.211 235.581 391.008 235.915 388.538C231.041 392.811 225.734 396.449 219.993 399.453C213.05 402.991 205.707 404.76 197.963 404.76C188.083 404.76 180.506 401.956 175.232 396.349C170.025 390.674 168.523 382.663 170.726 372.316C173.597 358.898 180.84 349.185 192.456 343.177C198.798 339.905 207.643 337.569 218.992 336.167L228.905 334.965ZM229.406 352.99L222.797 354.192C216.522 355.26 211.915 356.561 208.978 358.097C204.038 360.7 201.001 364.739 199.866 370.213C198.798 375.087 199.365 378.625 201.568 380.828C203.838 382.964 206.909 384.032 210.78 384.032C216.922 384.032 222.964 382.23 228.905 378.625C234.846 375.02 238.952 368.444 241.222 358.898L243.425 348.283C241.422 349.418 239.419 350.353 237.417 351.087C235.414 351.755 232.744 352.389 229.406 352.99ZM324.735 371.215C323.8 375.687 323.767 378.491 324.635 379.626C325.569 380.694 328.941 381.228 334.749 381.228C335.616 381.228 336.518 381.228 337.452 381.228C338.454 381.161 339.455 381.095 340.456 381.028L335.85 402.357L322.232 402.858C308.68 403.325 299.968 400.988 296.096 395.848C293.626 392.577 293.092 387.537 294.494 380.727L308.813 313.536H293.593L297.899 293.209H313.119L319.628 262.768H347.866L341.358 293.209H359.082L354.776 313.536H337.052L324.735 371.215ZM418.662 376.822C420.999 375.02 423.302 372.516 425.572 369.312H454.711C452.575 375.787 447.802 382.363 440.392 389.039C428.776 399.653 414.557 404.96 397.734 404.96C383.849 404.96 372.533 400.488 363.788 391.542C355.11 382.597 352.907 368.044 357.179 347.883C361.184 328.991 369.028 314.504 380.711 304.424C392.46 294.344 405.979 289.304 421.266 289.304C430.345 289.304 438.156 291.006 444.698 294.41C451.307 297.815 456.18 303.189 459.318 310.532C462.255 317.008 463.423 324.518 462.822 333.063C462.555 338.07 461.354 345.279 459.217 354.692H384.516C382.58 365.64 384.383 373.317 389.923 377.723C393.261 380.46 397.701 381.829 403.241 381.829C409.116 381.829 414.256 380.16 418.662 376.822ZM416.259 312.835C409.65 312.835 404.076 314.905 399.536 319.044C395.064 323.183 391.626 328.79 389.222 335.867H433.583C434.718 328.323 433.616 322.615 430.278 318.743C427.007 314.805 422.334 312.835 416.259 312.835Z" fill="white"/>
<defs>
<radialGradient id="paint0_radial_11_27" cx="0" cy="0" r="1" gradientUnits="userSpaceOnUse" gradientTransform="translate(250 250) rotate(90) scale(359.619)">
<stop stop-color="#00D11C"/>
<stop offset="1" stop-color="white"/>
</radialGradient>
</defs>
</svg>
