<svg xmlns="http://www.w3.org/2000/svg" viewBox="0 0 500 500">
  <rect width="500" height="500" fill="#4ADE80" rx="50" ry="50"/>
  <path d="M100,150c0,40,32,72,72,72h10c9,0,16-7,16-16v-70c0-9-7-16-16-16h-66c-9,0-16,7-16,16v14Z" fill="white"/>
  <path d="M100,350c0-40,32-72,72-72h10c9,0,16,7,16,16v70c0,9-7,16-16,16h-66c-9,0-16-7-16-16v-14Z" fill="white"/>
  <path d="M350,150c0,40-32,72-72,72h-10c-9,0-16-7-16-16v-70c0-9,7-16,16-16h66c9,0,16,7,16,16v14Z" fill="white"/>
  <path d="M240,240l140-60v150l-60,30Z" fill="white"/>
</svg> 