<?xml version="1.0" encoding="UTF-8"?>
<svg id="a" data-name="Layer 1" xmlns="http://www.w3.org/2000/svg" viewBox="0 0 1015 1015">
  <defs>
    <style>
      .b {
        fill-rule: evenodd;
      }
    </style>
  </defs>
  <path class="b" d="M315,0h-19C290.4,0,287.6,0,285.46,1.09c-1.88.96-3.41,2.49-4.37,4.37-1.09,2.14-1.09,4.94-1.09,10.54v38c0,5.6,0,8.4,1.09,10.54.96,1.88,2.49,3.41,4.37,4.37,2.14,1.09,4.94,1.09,10.54,1.09h3c5.6,0,8.4,0,10.54-1.09,1.88-.96,3.41-2.49,4.37-4.37,1.09-2.14,1.09-4.94,1.09-10.54v-3c0-5.6,0-8.4,1.09-10.54.96-1.88,2.49-3.41,4.37-4.37,2.14-1.09,4.94-1.09,10.54-1.09h19v19c0,5.6,0,8.4,1.09,10.54.96,1.88,2.49,3.41,4.37,4.37,2.14,1.09,4.94,1.09,10.54,1.09h3c5.6,0,8.4,0,10.54-1.09,1.88-.96,3.41-2.49,4.37-4.37,1.09-2.14,1.09-4.94,1.09-10.54v-19h54c5.6,0,8.4,0,10.54-1.09,1.88-.96,3.41-2.49,4.37-4.37,1.09-2.14,1.09-4.94,1.09-10.54v-3c0-5.6,0-8.4-1.09-10.54-.96-1.88-2.49-3.41-4.37-4.37C447.4,0,444.6,0,439,0h-38C395.4,0,392.6,0,390.46,1.09c-1.88.96-3.41,2.49-4.37,4.37-1.09,2.14-1.09,4.94-1.09,10.54v19h-35v-19c0-5.6,0-8.4-1.09-10.54-.96-1.88-2.49-3.41-4.37-4.37C342.4,0,339.6,0,334,0h-19ZM525,16c0-5.6,0-8.4,1.09-10.54.96-1.88,2.49-3.41,4.37-4.37C532.6,0,535.4,0,541,0h38C584.6,0,587.4,0,589.54,1.09c1.88.96,3.41,2.49,4.37,4.37,1.09,2.14,1.09,4.94,1.09,10.54v19h-19c-5.6,0-8.4,0-10.54,1.09-1.88.96-3.41,2.49-4.37,4.37-1.09,2.14-1.09,4.94-1.09,10.54v38c0,5.6,0,8.4-1.09,10.54-.96,1.88-2.49,3.41-4.37,4.37-2.14,1.09-4.94,1.09-10.54,1.09h-73c-5.6,0-8.4,0-10.54,1.09-1.88.96-3.41,2.49-4.37,4.37-1.09,2.14-1.09,4.94-1.09,10.54v3c0,5.6,0,8.4,1.09,10.54.96,1.88,2.49,3.41,4.37,4.37,2.14,1.09,4.94,1.09,10.54,1.09h3c5.6,0,8.4,0,10.54,1.09,1.88.96,3.41,2.49,4.37,4.37,1.09,2.14,1.09,4.94,1.09,10.54v19h-19c-5.6,0-8.4,0-10.54,1.09-1.88.96-3.41,2.49-4.37,4.37-1.09,2.14-1.09,4.94-1.09,10.54v54h-19c-5.6,0-8.4,0-10.54-1.09-1.88-.96-3.41-2.49-4.37-4.37-1.09-2.14-1.09-4.94-1.09-10.54V86c0-5.6,0-8.4,1.09-10.54.96-1.88,2.49-3.41,4.37-4.37,2.14-1.09,4.94-1.09,10.54-1.09h38c5.6,0,8.4,0,10.54-1.09,1.88-.96,3.41-2.49,4.37-4.37,1.09-2.14,1.09-4.94,1.09-10.54v-3c0-5.6,0-8.4,1.09-10.54.96-1.88,2.49-3.41,4.37-4.37,2.14-1.09,4.94-1.09,10.54-1.09h3c5.6,0,8.4,0,10.54-1.09,1.88-.96,3.41-2.49,4.37-4.37,1.09-2.14,1.09-4.94,1.09-10.54v-3ZM420,315v-19c0-5.6,0-8.4,1.09-10.54.96-1.88,2.49-3.41,4.37-4.37,2.14-1.09,4.94-1.09,10.54-1.09h3c5.6,0,8.4,0,10.54-1.09,1.88-.96,3.41-2.49,4.37-4.37,1.09-2.14,1.09-4.94,1.09-10.54v-19h19c5.6,0,8.4,0,10.54-1.09,1.88-.96,3.41-2.49,4.37-4.37,1.09-2.14,1.09-4.94,1.09-10.54v-54h19c5.6,0,8.4,0,10.54,1.09,1.88.96,3.41,2.49,4.37,4.37,1.09,2.14,1.09,4.94,1.09,10.54v108c0,5.6,0,8.4-1.09,10.54-.96,1.88-2.49,3.41-4.37,4.37-2.14,1.09-4.94,1.09-10.54,1.09h-89ZM420,350v-35h-19c-5.6,0-8.4,0-10.54,1.09-1.88.96-3.41,2.49-4.37,4.37-1.09,2.14-1.09,4.94-1.09,10.54v19h-35v-54c0-5.6,0-8.4,1.09-10.54.96-1.88,2.49-3.41,4.37-4.37,2.14-1.09,4.94-1.09,10.54-1.09h3c5.6,0,8.4,0,10.54-1.09,1.88-.96,3.41-2.49,4.37-4.37,1.09-2.14,1.09-4.94,1.09-10.54v-108c0-5.6,0-8.4-1.09-10.54-.96-1.88-2.49-3.41-4.37-4.37-2.14-1.09-4.94-1.09-10.54-1.09h-3c-5.6,0-8.4,0-10.54-1.09-1.88-.96-3.41-2.49-4.37-4.37-1.09-2.14-1.09-4.94-1.09-10.54v-3c0-5.6,0-8.4-1.09-10.54-.96-1.88-2.49-3.41-4.37-4.37-2.14-1.09-4.94-1.09-10.54-1.09h-38c-5.6,0-8.4,0-10.54,1.09-1.88.96-3.41,2.49-4.37,4.37-1.09,2.14-1.09,4.94-1.09,10.54v3c0,5.6,0,8.4,1.09,10.54.96,1.88,2.49,3.41,4.37,4.37,2.14,1.09,4.94,1.09,10.54,1.09h3c5.6,0,8.4,0,10.54,1.09,1.88.96,3.41,2.49,4.37,4.37,1.09,2.14,1.09,4.94,1.09,10.54v3c0,5.6,0,8.4,1.09,10.54.96,1.88,2.49,3.41,4.37,4.37,2.14,1.09,4.94,1.09,10.54,1.09h3c5.6,0,8.4,0,10.54,1.09,1.88.96,3.41,2.49,4.37,4.37,1.09,2.14,1.09,4.94,1.09,10.54v38c0,5.6,0,8.4-1.09,10.54-.96,1.88-2.49,3.41-4.37,4.37-2.14,1.09-4.94,1.09-10.54,1.09h-3c-5.6,0-8.4,0-10.54-1.09-1.88-.96-3.41-2.49-4.37-4.37-1.09-2.14-1.09-4.94-1.09-10.54v-3c0-5.6,0-8.4-1.09-10.54-.96-1.88-2.49-3.41-4.37-4.37-2.14-1.09-4.94-1.09-10.54-1.09h-3c-5.6,0-8.4,0-10.54,1.09-1.88.96-3.41,2.49-4.37,4.37-1.09,2.14-1.09,4.94-1.09,10.54v54h-89c-5.6,0-8.4,0-10.54,1.09-1.88.96-3.41,2.49-4.37,4.37-1.09,2.14-1.09,4.94-1.09,10.54v3c0,5.6,0,8.4,1.09,10.54.96,1.88,2.49,3.41,4.37,4.37,2.14,1.09,4.94,1.09,10.54,1.09h38c5.6,0,8.4,0,10.54,1.09,1.88.96,3.41,2.49,4.37,4.37,1.09,2.14,1.09,4.94,1.09,10.54v19h-54c-5.6,0-8.4,0-10.54,1.09-1.88.96-3.41,2.49-4.37,4.37-1.09,2.14-1.09,4.94-1.09,10.54v3c0,5.6,0,8.4-1.09,10.54-.96,1.88-2.49,3.41-4.37,4.37-2.14,1.09-4.94,1.09-10.54,1.09h-38c-5.6,0-8.4,0-10.54,1.09-1.88.96-3.41,2.49-4.37,4.37-1.09,2.14-1.09,4.94-1.09,10.54v3c0,5.6,0,8.4-1.09,10.54-.96,1.88-2.49,3.41-4.37,4.37-2.14,1.09-4.94,1.09-10.54,1.09h-19v-105h19c5.6,0,8.4,0,10.54,1.09,1.88.96,3.41,2.49,4.37,4.37,1.09,2.14,1.09,4.94,1.09,10.54v3c0,5.6,0,8.4,1.09,10.54.96,1.88,2.49,3.41,4.37,4.37,2.14,1.09,4.94,1.09,10.54,1.09h3c5.6,0,8.4,0,10.54-1.09,1.88-.96,3.41-2.49,4.37-4.37,1.09-2.14,1.09-4.94,1.09-10.54v-38c0-5.6,0-8.4-1.09-10.54-.96-1.88-2.49-3.41-4.37-4.37-2.14-1.09-4.94-1.09-10.54-1.09h-38c-5.6,0-8.4,0-10.54,1.09-1.88.96-3.41,2.49-4.37,4.37-1.09,2.14-1.09,4.94-1.09,10.54v19h-35v-19c0-5.6,0-8.4-1.09-10.54-.96-1.88-2.49-3.41-4.37-4.37-2.14-1.09-4.94-1.09-10.54-1.09h-3c-5.6,0-8.4,0-10.54,1.09-1.88.96-3.41,2.49-4.37,4.37-1.09,2.14-1.09,4.94-1.09,10.54v3c0,5.6,0,8.4,1.09,10.54.96,1.88,2.49,3.41,4.37,4.37,2.14,1.09,4.94,1.09,10.54,1.09h19v105h-19c-5.6,0-8.4,0-10.54,1.09-1.88.96-3.41,2.49-4.37,4.37-1.09,2.14-1.09,4.94-1.09,10.54v3c0,5.6,0,8.4,1.09,10.54.96,1.88,2.49,3.41,4.37,4.37,2.14,1.09,4.94,1.09,10.54,1.09h3c5.6,0,8.4,0,10.54-1.09,1.88-.96,3.41-2.49,4.37-4.37,1.09-2.14,1.09-4.94,1.09-10.54v-19h35v70H16c-5.6,0-8.4,0-10.54,1.09-1.88.96-3.41,2.49-4.37,4.37-1.09,2.14-1.09,4.94-1.09,10.54v73c0,5.6,0,8.4,1.09,10.54.96,1.88,2.49,3.41,4.37,4.37,2.14,1.09,4.94,1.09,10.54,1.09h54v19c0,5.6,0,8.4,1.09,10.54.96,1.88,2.49,3.41,4.37,4.37,2.14,1.09,4.94,1.09,10.54,1.09h3c5.6,0,8.4,0,10.54-1.09,1.88-.96,3.41-2.49,4.37-4.37,1.09-2.14,1.09-4.94,1.09-10.54v-3c0-5.6,0-8.4-1.09-10.54-.96-1.88-2.49-3.41-4.37-4.37-2.14-1.09-4.94-1.09-10.54-1.09h-19v-105h19c5.6,0,8.4,0,10.54-1.09,1.88-.96,3.41-2.49,4.37-4.37,1.09-2.14,1.09-4.94,1.09-10.54v-3c0-5.6,0-8.4,1.09-10.54.96-1.88,2.49-3.41,4.37-4.37,2.14-1.09,4.94-1.09,10.54-1.09h3c5.6,0,8.4,0,10.54-1.09,1.88-.96,3.41-2.49,4.37-4.37,1.09-2.14,1.09-4.94,1.09-10.54v-3c0-5.6,0-8.4,1.09-10.54.96-1.88,2.49-3.41,4.37-4.37,2.14-1.09,4.94-1.09,10.54-1.09h3c5.6,0,8.4,0,10.54,1.09,1.88.96,3.41,2.49,4.37,4.37,1.09,2.14,1.09,4.94,1.09,10.54v3c0,5.6,0,8.4,1.09,10.54.96,1.88,2.49,3.41,4.37,4.37,2.14,1.09,4.94,1.09,10.54,1.09h38c5.6,0,8.4,0,10.54,1.09,1.88.96,3.41,2.49,4.37,4.37,1.09,2.14,1.09,4.94,1.09,10.54v19h-19c-5.6,0-8.4,0-10.54,1.09-1.88.96-3.41,2.49-4.37,4.37-1.09,2.14-1.09,4.94-1.09,10.54v19h-54c-5.6,0-8.4,0-10.54,1.09-1.88.96-3.41,2.49-4.37,4.37-1.09,2.14-1.09,4.94-1.09,10.54v3c0,5.6,0,8.4,1.09,10.54.96,1.88,2.49,3.41,4.37,4.37,2.14,1.09,4.94,1.09,10.54,1.09h54v35h-19c-5.6,0-8.4,0-10.54,1.09-1.88.96-3.41,2.49-4.37,4.37-1.09,2.14-1.09,4.94-1.09,10.54v3c0,5.6,0,8.4-1.09,10.54-.96,1.88-2.49,3.41-4.37,4.37-2.14,1.09-4.94,1.09-10.54,1.09h-3c-5.6,0-8.4,0-10.54,1.09-1.88.96-3.41,2.49-4.37,4.37-1.09,2.14-1.09,4.94-1.09,10.54v54h-19c-5.6,0-8.4,0-10.54-1.09-1.88-.96-3.41-2.49-4.37-4.37-1.09-2.14-1.09-4.94-1.09-10.54v-3c0-5.6,0-8.4-1.09-10.54-.96-1.88-2.49-3.41-4.37-4.37-2.14-1.09-4.94-1.09-10.54-1.09h-3c-5.6,0-8.4,0-10.54,1.09-1.88.96-3.41,2.49-4.37,4.37-1.09,2.14-1.09,4.94-1.09,10.54v3c0,5.6,0,8.4-1.09,10.54-.96,1.88-2.49,3.41-4.37,4.37-2.14,1.09-4.94,1.09-10.54,1.09h-3c-5.6,0-8.4,0-10.54,1.09-1.88.96-3.41,2.49-4.37,4.37-1.09,2.14-1.09,4.94-1.09,10.54v3c0,5.6,0,8.4,1.09,10.54.96,1.88,2.49,3.41,4.37,4.37,2.14,1.09,4.94,1.09,10.54,1.09h73c5.6,0,8.4,0,10.54-1.09,1.88-.96,3.41-2.49,4.37-4.37,1.09-2.14,1.09-4.94,1.09-10.54v-19h35v19c0,5.6,0,8.4,1.09,10.54.96,1.88,2.49,3.41,4.37,4.37,2.14,1.09,4.94,1.09,10.54,1.09h38c5.6,0,8.4,0,10.54-1.09,1.88-.96,3.41-2.49,4.37-4.37,1.09-2.14,1.09-4.94,1.09-10.54v-19h19c5.6,0,8.4,0,10.54,1.09,1.88.96,3.41,2.49,4.37,4.37,1.09,2.14,1.09,4.94,1.09,10.54v108c0,5.6,0,8.4,1.09,10.54.96,1.88,2.49,3.41,4.37,4.37,2.14,1.09,4.94,1.09,10.54,1.09h19v35h-19c-5.6,0-8.4,0-10.54,1.09-1.88.96-3.41,2.49-4.37,4.37-1.09,2.14-1.09,4.94-1.09,10.54v38c0,5.6,0,8.4,1.09,10.54.96,1.88,2.49,3.41,4.37,4.37,2.14,1.09,4.94,1.09,10.54,1.09h3c5.6,0,8.4,0,10.54,1.09,1.88.96,3.41,2.49,4.37,4.37,1.09,2.14,1.09,4.94,1.09,10.54v3c0,5.6,0,8.4-1.09,10.54-.96,1.88-2.49,3.41-4.37,4.37-2.14,1.09-4.94,1.09-10.54,1.09h-3c-5.6,0-8.4,0-10.54,1.09-1.88.96-3.41,2.49-4.37,4.37-1.09,2.14-1.09,4.94-1.09,10.54v3c0,5.6,0,8.4,1.09,10.54.96,1.88,2.49,3.41,4.37,4.37,2.14,1.09,4.94,1.09,10.54,1.09h143c5.6,0,8.4,0,10.54-1.09,1.88-.96,3.41-2.49,4.37-4.37,1.09-2.14,1.09-4.94,1.09-10.54v-19h19c5.6,0,8.4,0,10.54,1.09,1.88.96,3.41,2.49,4.37,4.37,1.09,2.14,1.09,4.94,1.09,10.54v3c0,5.6,0,8.4,1.09,10.54.96,1.88,2.49,3.41,4.37,4.37,2.14,1.09,4.94,1.09,10.54,1.09h38c5.6,0,8.4,0,10.54-1.09,1.88-.96,3.41-2.49,4.37-4.37,1.09-2.14,1.09-4.94,1.09-10.54v-54h54c5.6,0,8.4,0,10.54-1.09,1.88-.96,3.41-2.49,4.37-4.37,1.09-2.14,1.09-4.94,1.09-10.54v-89h19c5.6,0,8.4,0,10.54-1.09,1.88-.96,3.41-2.49,4.37-4.37,1.09-2.14,1.09-4.94,1.09-10.54v-19h19c5.6,0,8.4,0,10.54,1.09,1.88.96,3.41,2.49,4.37,4.37,1.09,2.14,1.09,4.94,1.09,10.54v54h-19c-5.6,0-8.4,0-10.54,1.09-1.88.96-3.41,2.49-4.37,4.37-1.09,2.14-1.09,4.94-1.09,10.54v3c0,5.6,0,8.4,1.09,10.54.96,1.88,2.49,3.41,4.37,4.37,2.14,1.09,4.94,1.09,10.54,1.09h19v89c0,5.6,0,8.4,1.09,10.54.96,1.88,2.49,3.41,4.37,4.37,2.14,1.09,4.94,1.09,10.54,1.09h38c5.6,0,8.4,0,10.54-1.09,1.88-.96,3.41-2.49,4.37-4.37,1.09-2.14,1.09-4.94,1.09-10.54v-3c0-5.6,0-8.4-1.09-10.54-.96-1.88-2.49-3.41-4.37-4.37-2.14-1.09-4.94-1.09-10.54-1.09h-3c-5.6,0-8.4,0-10.54-1.09-1.88-.96-3.41-2.49-4.37-4.37-1.09-2.14-1.09-4.94-1.09-10.54v-3c0-5.6,0-8.4,1.09-10.54.96-1.88,2.49-3.41,4.37-4.37,2.14-1.09,4.94-1.09,10.54-1.09h3c5.6,0,8.4,0,10.54-1.09,1.88-.96,3.41-2.49,4.37-4.37,1.09-2.14,1.09-4.94,1.09-10.54v-38c0-5.6,0-8.4,1.09-10.54.96-1.88,2.49-3.41,4.37-4.37,2.14-1.09,4.94-1.09,10.54-1.09h3c5.6,0,8.4,0,10.54,1.09,1.88.96,3.41,2.49,4.37,4.37,1.09,2.14,1.09,4.94,1.09,10.54v3c0,5.6,0,8.4,1.09,10.54.96,1.88,2.49,3.41,4.37,4.37,2.14,1.09,4.94,1.09,10.54,1.09h89v35h-54c-5.6,0-8.4,0-10.54,1.09-1.88.96-3.41,2.49-4.37,4.37-1.09,2.14-1.09,4.94-1.09,10.54v3c0,5.6,0,8.4,1.09,10.54.96,1.88,2.49,3.41,4.37,4.37,2.14,1.09,4.94,1.09,10.54,1.09h3c5.6,0,8.4,0,10.54,1.09,1.88.96,3.41,2.49,4.37,4.37,1.09,2.14,1.09,4.94,1.09,10.54v3c0,5.6,0,8.4,1.09,10.54.96,1.88,2.49,3.41,4.37,4.37,2.14,1.09,4.94,1.09,10.54,1.09h3c5.6,0,8.4,0,10.54-1.09,1.88-.96,3.41-2.49,4.37-4.37,1.09-2.14,1.09-4.94,1.09-10.54v-54h35v54c0,5.6,0,8.4,1.09,10.54.96,1.88,2.49,3.41,4.37,4.37,2.14,1.09,4.94,1.09,10.54,1.09h3c5.6,0,8.4,0,10.54-1.09,1.88-.96,3.41-2.49,4.37-4.37,1.09-2.14,1.09-4.94,1.09-10.54v-54h19c5.6,0,8.4,0,10.54-1.09,1.88-.96,3.41-2.49,4.37-4.37,1.09-2.14,1.09-4.94,1.09-10.54v-38c0-5.6,0-8.4-1.09-10.54-.96-1.88-2.49-3.41-4.37-4.37-2.14-1.09-4.94-1.09-10.54-1.09h-19v-89c0-5.6,0-8.4,1.09-10.54.96-1.88,2.49-3.41,4.37-4.37,2.14-1.09,4.94-1.09,10.54-1.09h3c5.6,0,8.4,0,10.54-1.09,1.88-.96,3.41-2.49,4.37-4.37,1.09-2.14,1.09-4.94,1.09-10.54v-3c0-5.6,0-8.4-1.09-10.54-.96-1.88-2.49-3.41-4.37-4.37-2.14-1.09-4.94-1.09-10.54-1.09h-38c-5.6,0-8.4,0-10.54-1.09-1.88-.96-3.41-2.49-4.37-4.37-1.09-2.14-1.09-4.94-1.09-10.54v-73c0-5.6,0-8.4,1.09-10.54.96-1.88,2.49-3.41,4.37-4.37,2.14-1.09,4.94-1.09,10.54-1.09h3c5.6,0,8.4,0,10.54-1.09,1.88-.96,3.41-2.49,4.37-4.37,1.09-2.14,1.09-4.94,1.09-10.54v-73c0-5.6,0-8.4,1.09-10.54.96-1.88,2.49-3.41,4.37-4.37,2.14-1.09,4.94-1.09,10.54-1.09h3c5.6,0,8.4,0,10.54-1.09,1.88-.96,3.41-2.49,4.37-4.37,1.09-2.14,1.09-4.94,1.09-10.54v-38c0-5.6,0-8.4-1.09-10.54-.96-1.88-2.49-3.41-4.37-4.37-2.14-1.09-4.94-1.09-10.54-1.09h-38c-5.6,0-8.4,0-10.54-1.09-1.88-.96-3.41-2.49-4.37-4.37-1.09-2.14-1.09-4.94-1.09-10.54v-3c0-5.6,0-8.4-1.09-10.54-.96-1.88-2.49-3.41-4.37-4.37-2.14-1.09-4.94-1.09-10.54-1.09h-54v-105h19c5.6,0,8.4,0,10.54-1.09,1.88-.96,3.41-2.49,4.37-4.37,1.09-2.14,1.09-4.94,1.09-10.54v-3c0-5.6,0-8.4-1.09-10.54-.96-1.88-2.49-3.41-4.37-4.37-2.14-1.09-4.94-1.09-10.54-1.09h-3c-5.6,0-8.4,0-10.54,1.09-1.88.96-3.41,2.49-4.37,4.37-1.09,2.14-1.09,4.94-1.09,10.54v19h-54c-5.6,0-8.4,0-10.54-1.09-1.88-.96-3.41-2.49-4.37-4.37-1.09-2.14-1.09-4.94-1.09-10.54v-3c0-5.6,0-8.4-1.09-10.54-.96-1.88-2.49-3.41-4.37-4.37-2.14-1.09-4.94-1.09-10.54-1.09h-3c-5.6,0-8.4,0-10.54,1.09-1.88.96-3.41,2.49-4.37,4.37-1.09,2.14-1.09,4.94-1.09,10.54v38c0,5.6,0,8.4,1.09,10.54.96,1.88,2.49,3.41,4.37,4.37,2.14,1.09,4.94,1.09,10.54,1.09h38c5.6,0,8.4,0,10.54,1.09,1.88.96,3.41,2.49,4.37,4.37,1.09,2.14,1.09,4.94,1.09,10.54v3c0,5.6,0,8.4-1.09,10.54-.96,1.88-2.49,3.41-4.37,4.37-2.14,1.09-4.94,1.09-10.54,1.09h-3c-5.6,0-8.4,0-10.54,1.09-1.88.96-3.41,2.49-4.37,4.37-1.09,2.14-1.09,4.94-1.09,10.54v3c0,5.6,0,8.4,1.09,10.54.96,1.88,2.49,3.41,4.37,4.37,2.14,1.09,4.94,1.09,10.54,1.09h54v19c0,5.6,0,8.4,1.09,10.54.96,1.88,2.49,3.41,4.37,4.37,2.14,1.09,4.94,1.09,10.54,1.09h3c5.6,0,8.4,0,10.54,1.09,1.88.96,3.41,2.49,4.37,4.37,1.09,2.14,1.09,4.94,1.09,10.54v38c0,5.6,0,8.4,1.09,10.54.96,1.88,2.49,3.41,4.37,4.37,2.14,1.09,4.94,1.09,10.54,1.09h3c5.6,0,8.4,0,10.54,1.09,1.88.96,3.41,2.49,4.37,4.37,1.09,2.14,1.09,4.94,1.09,10.54v38c0,5.6,0,8.4-1.09,10.54-.96,1.88-2.49,3.41-4.37,4.37-2.14,1.09-4.94,1.09-10.54,1.09h-3c-5.6,0-8.4,0-10.54-1.09-1.88-.96-3.41-2.49-4.37-4.37-1.09-2.14-1.09-4.94-1.09-10.54v-3c0-5.6,0-8.4-1.09-10.54-.96-1.88-2.49-3.41-4.37-4.37-2.14-1.09-4.94-1.09-10.54-1.09h-38c-5.6,0-8.4,0-10.54-1.09-1.88-.96-3.41-2.49-4.37-4.37-1.09-2.14-1.09-4.94-1.09-10.54v-38c0-5.6,0-8.4-1.09-10.54-.96-1.88-2.49-3.41-4.37-4.37-2.14-1.09-4.94-1.09-10.54-1.09h-19v-19c0-5.6,0-8.4-1.09-10.54-.96-1.88-2.49-3.41-4.37-4.37-2.14-1.09-4.94-1.09-10.54-1.09h-19v-54c0-5.6,0-8.4-1.09-10.54-.96-1.88-2.49-3.41-4.37-4.37-2.14-1.09-4.94-1.09-10.54-1.09h-3c-5.6,0-8.4,0-10.54,1.09-1.88.96-3.41,2.49-4.37,4.37-1.09,2.14-1.09,4.94-1.09,10.54v38c0,5.6,0,8.4,1.09,10.54.96,1.88,2.49,3.41,4.37,4.37,2.14,1.09,4.94,1.09,10.54,1.09h19v35h-19c-5.6,0-8.4,0-10.54,1.09-1.88.96-3.41,2.49-4.37,4.37-1.09,2.14-1.09,4.94-1.09,10.54v73c0,5.6,0,8.4-1.09,10.54-.96,1.88-2.49,3.41-4.37,4.37-2.14,1.09-4.94,1.09-10.54,1.09h-3c-5.6,0-8.4,0-10.54,1.09-1.88.96-3.41,2.49-4.37,4.37-1.09,2.14-1.09,4.94-1.09,10.54v3c0,5.6,0,8.4,1.09,10.54.96,1.88,2.49,3.41,4.37,4.37,2.14,1.09,4.94,1.09,10.54,1.09h3c5.6,0,8.4,0,10.54,1.09,1.88.96,3.41,2.49,4.37,4.37,1.09,2.14,1.09,4.94,1.09,10.54v3c0,5.6,0,8.4,1.09,10.54.96,1.88,2.49,3.41,4.37,4.37,2.14,1.09,4.94,1.09,10.54,1.09h19v19c0,5.6,0,8.4-1.09,10.54-.96,1.88-2.49,3.41-4.37,4.37-2.14,1.09-4.94,1.09-10.54,1.09h-73c-5.6,0-8.4,0-10.54-1.09-1.88-.96-3.41-2.49-4.37-4.37-1.09-2.14-1.09-4.94-1.09-10.54v-3c0-5.6,0-8.4-1.09-10.54-.96-1.88-2.49-3.41-4.37-4.37-2.14-1.09-4.94-1.09-10.54-1.09h-3c-5.6,0-8.4,0-10.54-1.09-1.88-.96-3.41-2.49-4.37-4.37-1.09-2.14-1.09-4.94-1.09-10.54v-38c0-5.6,0-8.4-1.09-10.54-.96-1.88-2.49-3.41-4.37-4.37-2.14-1.09-4.94-1.09-10.54-1.09h-19v-54c0-5.6,0-8.4-1.09-10.54-.96-1.88-2.49-3.41-4.37-4.37-2.14-1.09-4.94-1.09-10.54-1.09h-54v-35h89c5.6,0,8.4,0,10.54,1.09,1.88.96,3.41,2.49,4.37,4.37,1.09,2.14,1.09,4.94,1.09,10.54v38c0,5.6,0,8.4,1.09,10.54.96,1.88,2.49,3.41,4.37,4.37,2.14,1.09,4.94,1.09,10.54,1.09h38c5.6,0,8.4,0,10.54-1.09,1.88-.96,3.41-2.49,4.37-4.37,1.09-2.14,1.09-4.94,1.09-10.54v-73c0-5.6,0-8.4-1.09-10.54-.96-1.88-2.49-3.41-4.37-4.37-2.14-1.09-4.94-1.09-10.54-1.09h-38c-5.6,0-8.4,0-10.54-1.09-1.88-.96-3.41-2.49-4.37-4.37-1.09-2.14-1.09-4.94-1.09-10.54v-3c0-5.6,0-8.4-1.09-10.54-.96-1.88-2.49-3.41-4.37-4.37-2.14-1.09-4.94-1.09-10.54-1.09h-3c-5.6,0-8.4,0-10.54,1.09-1.88.96-3.41,2.49-4.37,4.37-1.09,2.14-1.09,4.94-1.09,10.54v3c0,5.6,0,8.4-1.09,10.54-.96,1.88-2.49,3.41-4.37,4.37-2.14,1.09-4.94,1.09-10.54,1.09h-38c-5.6,0-8.4,0-10.54,1.09-1.88.96-3.41,2.49-4.37,4.37-1.09,2.14-1.09,4.94-1.09,10.54v19h-35v-19c0-5.6,0-8.4-1.09-10.54-.96-1.88-2.49-3.41-4.37-4.37-2.14-1.09-4.94-1.09-10.54-1.09h-3c-5.6,0-8.4,0-10.54-1.09-1.88-.96-3.41-2.49-4.37-4.37-1.09-2.14-1.09-4.94-1.09-10.54v-19h54c5.6,0,8.4,0,10.54-1.09,1.88-.96,3.41-2.49,4.37-4.37,1.09-2.14,1.09-4.94,1.09-10.54v-38c0-5.6,0-8.4-1.09-10.54-.96-1.88-2.49-3.41-4.37-4.37-2.14-1.09-4.94-1.09-10.54-1.09h-3c-5.6,0-8.4,0-10.54,1.09-1.88.96-3.41,2.49-4.37,4.37-1.09,2.14-1.09,4.94-1.09,10.54v3c0,5.6,0,8.4-1.09,10.54-.96,1.88-2.49,3.41-4.37,4.37-2.14,1.09-4.94,1.09-10.54,1.09h-19v-19c0-5.6,0-8.4-1.09-10.54-.96-1.88-2.49-3.41-4.37-4.37-2.14-1.09-4.94-1.09-10.54-1.09h-19ZM420,350v19c0,5.6,0,8.4,1.09,10.54.96,1.88,2.49,3.41,4.37,4.37,2.14,1.09,4.94,1.09,10.54,1.09h19v35h-19c-5.6,0-8.4,0-10.54,1.09-1.88.96-3.41,2.49-4.37,4.37-1.09,2.14-1.09,4.94-1.09,10.54v38c0,5.6,0,8.4-1.09,10.54-.96,1.88-2.49,3.41-4.37,4.37-2.14,1.09-4.94,1.09-10.54,1.09h-3c-5.6,0-8.4,0-10.54,1.09-1.88.96-3.41,2.49-4.37,4.37-1.09,2.14-1.09,4.94-1.09,10.54v19h-35v-54c0-5.6,0-8.4-1.09-10.54-.96-1.88-2.49-3.41-4.37-4.37-2.14-1.09-4.94-1.09-10.54-1.09h-3c-5.6,0-8.4,0-10.54-1.09-1.88-.96-3.41-2.49-4.37-4.37-1.09-2.14-1.09-4.94-1.09-10.54v-3c0-5.6,0-8.4,1.09-10.54.96-1.88,2.49-3.41,4.37-4.37,2.14-1.09,4.94-1.09,10.54-1.09h38c5.6,0,8.4,0,10.54-1.09,1.88-.96,3.41-2.49,4.37-4.37,1.09-2.14,1.09-4.94,1.09-10.54v-54h35ZM350,525v19c0,5.6,0,8.4-1.09,10.54-.96,1.88-2.49,3.41-4.37,4.37-2.14,1.09-4.94,1.09-10.54,1.09h-3c-5.6,0-8.4,0-10.54-1.09-1.88-.96-3.41-2.49-4.37-4.37-1.09-2.14-1.09-4.94-1.09-10.54v-3c0-5.6,0-8.4,1.09-10.54.96-1.88,2.49-3.41,4.37-4.37,2.14-1.09,4.94-1.09,10.54-1.09h19ZM385,595v-70h19c5.6,0,8.4,0,10.54,1.09,1.88.96,3.41,2.49,4.37,4.37,1.09,2.14,1.09,4.94,1.09,10.54v38c0,5.6,0,8.4-1.09,10.54-.96,1.88-2.49,3.41-4.37,4.37-2.14,1.09-4.94,1.09-10.54,1.09h-19ZM385,665v-70h-105v-89c0-5.6,0-8.4-1.09-10.54-.96-1.88-2.49-3.41-4.37-4.37-2.14-1.09-4.94-1.09-10.54-1.09h-19v19c0,5.6,0,8.4-1.09,10.54-.96,1.88-2.49,3.41-4.37,4.37-2.14,1.09-4.94,1.09-10.54,1.09h-19v35h19c5.6,0,8.4,0,10.54,1.09,1.88.96,3.41,2.49,4.37,4.37,1.09,2.14,1.09,4.94,1.09,10.54v19h-35v19c0,5.6,0,8.4,1.09,10.54.96,1.88,2.49,3.41,4.37,4.37,2.14,1.09,4.94,1.09,10.54,1.09h19v35h-54c-5.6,0-8.4,0-10.54,1.09-1.88.96-3.41,2.49-4.37,4.37-1.09,2.14-1.09,4.94-1.09,10.54v19h70v-35h19c5.6,0,8.4,0,10.54-1.09,1.88-.96,3.41-2.49,4.37-4.37,1.09-2.14,1.09-4.94,1.09-10.54v-19h19c5.6,0,8.4,0,10.54,1.09,1.88.96,3.41,2.49,4.37,4.37,1.09,2.14,1.09,4.94,1.09,10.54v3c0,5.6,0,8.4,1.09,10.54.96,1.88,2.49,3.41,4.37,4.37,2.14,1.09,4.94,1.09,10.54,1.09h54ZM490,525h35v19c0,5.6,0,8.4,1.09,10.54.96,1.88,2.49,3.41,4.37,4.37,2.14,1.09,4.94,1.09,10.54,1.09h3c5.6,0,8.4,0,10.54,1.09,1.88.96,3.41,2.49,4.37,4.37,1.09,2.14,1.09,4.94,1.09,10.54v19h-19c-5.6,0-8.4,0-10.54,1.09-1.88.96-3.41,2.49-4.37,4.37-1.09,2.14-1.09,4.94-1.09,10.54v38c0,5.6,0,8.4,1.09,10.54.96,1.88,2.49,3.41,4.37,4.37,2.14,1.09,4.94,1.09,10.54,1.09h19v124c0,5.6,0,8.4,1.09,10.54.96,1.88,2.49,3.41,4.37,4.37,2.14,1.09,4.94,1.09,10.54,1.09h3c5.6,0,8.4,0,10.54-1.09,1.88-.96,3.41-2.49,4.37-4.37,1.09-2.14,1.09-4.94,1.09-10.54v-38c0-5.6,0-8.4,1.09-10.54.96-1.88,2.49-3.41,4.37-4.37,2.14-1.09,4.94-1.09,10.54-1.09h38c5.6,0,8.4,0,10.54,1.09,1.88.96,3.41,2.49,4.37,4.37,1.09,2.14,1.09,4.94,1.09,10.54v54h-19c-5.6,0-8.4,0-10.54,1.09-1.88.96-3.41,2.49-4.37,4.37-1.09,2.14-1.09,4.94-1.09,10.54v19h-19c-5.6,0-8.4,0-10.54,1.09-1.88.96-3.41,2.49-4.37,4.37-1.09,2.14-1.09,4.94-1.09,10.54v3c0,5.6,0,8.4-1.09,10.54-.96,1.88-2.49,3.41-4.37,4.37-2.14,1.09-4.94,1.09-10.54,1.09h-3c-5.6,0-8.4,0-10.54-1.09-1.88-.96-3.41-2.49-4.37-4.37-1.09-2.14-1.09-4.94-1.09-10.54v-3c0-5.6,0-8.4-1.09-10.54-.96-1.88-2.49-3.41-4.37-4.37-2.14-1.09-4.94-1.09-10.54-1.09h-38c-5.6,0-8.4,0-10.54,1.09-1.88.96-3.41,2.49-4.37,4.37-1.09,2.14-1.09,4.94-1.09,10.54v3c0,5.6,0,8.4-1.09,10.54-.96,1.88-2.49,3.41-4.37,4.37-2.14,1.09-4.94,1.09-10.54,1.09h-19v-70h19c5.6,0,8.4,0,10.54-1.09,1.88-.96,3.41-2.49,4.37-4.37,1.09-2.14,1.09-4.94,1.09-10.54v-3c0-5.6,0-8.4,1.09-10.54.96-1.88,2.49-3.41,4.37-4.37,2.14-1.09,4.94-1.09,10.54-1.09h3c5.6,0,8.4,0,10.54-1.09,1.88-.96,3.41-2.49,4.37-4.37,1.09-2.14,1.09-4.94,1.09-10.54v-3c0-5.6,0-8.4-1.09-10.54-.96-1.88-2.49-3.41-4.37-4.37-2.14-1.09-4.94-1.09-10.54-1.09h-3c-5.6,0-8.4,0-10.54-1.09-1.88-.96-3.41-2.49-4.37-4.37-1.09-2.14-1.09-4.94-1.09-10.54v-3c0-5.6,0-8.4-1.09-10.54-.96-1.88-2.49-3.41-4.37-4.37-2.14-1.09-4.94-1.09-10.54-1.09h-3c-5.6,0-8.4,0-10.54,1.09-1.88.96-3.41,2.49-4.37,4.37-1.09,2.14-1.09,4.94-1.09,10.54v89h-19c-5.6,0-8.4,0-10.54-1.09-1.88-.96-3.41-2.49-4.37-4.37-1.09-2.14-1.09-4.94-1.09-10.54v-38c0-5.6,0-8.4-1.09-10.54-.96-1.88-2.49-3.41-4.37-4.37-2.14-1.09-4.94-1.09-10.54-1.09h-3c-5.6,0-8.4,0-10.54-1.09-1.88-.96-3.41-2.49-4.37-4.37-1.09-2.14-1.09-4.94-1.09-10.54v-54h19c5.6,0,8.4,0,10.54-1.09,1.88-.96,3.41-2.49,4.37-4.37,1.09-2.14,1.09-4.94,1.09-10.54v-3c0-5.6,0-8.4,1.09-10.54.96-1.88,2.49-3.41,4.37-4.37,2.14-1.09,4.94-1.09,10.54-1.09h38c5.6,0,8.4,0,10.54-1.09,1.88-.96,3.41-2.49,4.37-4.37,1.09-2.14,1.09-4.94,1.09-10.54v-3c0-5.6,0-8.4-1.09-10.54-.96-1.88-2.49-3.41-4.37-4.37-2.14-1.09-4.94-1.09-10.54-1.09h-3c-5.6,0-8.4,0-10.54-1.09-1.88-.96-3.41-2.49-4.37-4.37-1.09-2.14-1.09-4.94-1.09-10.54v-3c0-5.6,0-8.4,1.09-10.54.96-1.88,2.49-3.41,4.37-4.37,2.14-1.09,4.94-1.09,10.54-1.09h3c5.6,0,8.4,0,10.54-1.09,1.88-.96,3.41-2.49,4.37-4.37,1.09-2.14,1.09-4.94,1.09-10.54v-19ZM455,875v19c0,5.6,0,8.4-1.09,10.54-.96,1.88-2.49,3.41-4.37,4.37-2.14,1.09-4.94,1.09-10.54,1.09h-3c-5.6,0-8.4,0-10.54-1.09-1.88-.96-3.41-2.49-4.37-4.37-1.09-2.14-1.09-4.94-1.09-10.54v-3c0-5.6,0-8.4,1.09-10.54.96-1.88,2.49-3.41,4.37-4.37,2.14-1.09,4.94-1.09,10.54-1.09h19ZM560,665v-70h35v54c0,5.6,0,8.4-1.09,10.54-.96,1.88-2.49,3.41-4.37,4.37-2.14,1.09-4.94,1.09-10.54,1.09h-19ZM280,630v-35h-35v35h35ZM490,525h-19c-5.6,0-8.4,0-10.54-1.09-1.88-.96-3.41-2.49-4.37-4.37-1.09-2.14-1.09-4.94-1.09-10.54v-3c0-5.6,0-8.4,1.09-10.54.96-1.88,2.49-3.41,4.37-4.37,2.14-1.09,4.94-1.09,10.54-1.09h19v35ZM770,665h19c5.6,0,8.4,0,10.54,1.09,1.88.96,3.41,2.49,4.37,4.37,1.09,2.14,1.09,4.94,1.09,10.54v3c0,5.6,0,8.4,1.09,10.54.96,1.88,2.49,3.41,4.37,4.37,2.14,1.09,4.94,1.09,10.54,1.09h3c5.6,0,8.4,0,10.54-1.09,1.88-.96,3.41-2.49,4.37-4.37,1.09-2.14,1.09-4.94,1.09-10.54v-3c0-5.6,0-8.4,1.09-10.54.96-1.88,2.49-3.41,4.37-4.37,2.14-1.09,4.94-1.09,10.54-1.09h3c5.6,0,8.4,0,10.54,1.09,1.88.96,3.41,2.49,4.37,4.37,1.09,2.14,1.09,4.94,1.09,10.54v3c0,5.6,0,8.4,1.09,10.54.96,1.88,2.49,3.41,4.37,4.37,2.14,1.09,4.94,1.09,10.54,1.09h3c5.6,0,8.4,0,10.54-1.09,1.88-.96,3.41-2.49,4.37-4.37,1.09-2.14,1.09-4.94,1.09-10.54v-38c0-5.6,0-8.4-1.09-10.54-.96-1.88-2.49-3.41-4.37-4.37-2.14-1.09-4.94-1.09-10.54-1.09h-3c-5.6,0-8.4,0-10.54-1.09-1.88-.96-3.41-2.49-4.37-4.37-1.09-2.14-1.09-4.94-1.09-10.54v-3c0-5.6,0-8.4-1.09-10.54-.96-1.88-2.49-3.41-4.37-4.37-2.14-1.09-4.94-1.09-10.54-1.09h-3c-5.6,0-8.4,0-10.54,1.09-1.88.96-3.41,2.49-4.37,4.37-1.09,2.14-1.09,4.94-1.09,10.54v3c0,5.6,0,8.4-1.09,10.54-.96,1.88-2.49,3.41-4.37,4.37-2.14,1.09-4.94,1.09-10.54,1.09h-3c-5.6,0-8.4,0-10.54-1.09-1.88-.96-3.41-2.49-4.37-4.37-1.09-2.14-1.09-4.94-1.09-10.54v-38c0-5.6,0-8.4-1.09-10.54-.96-1.88-2.49-3.41-4.37-4.37-2.14-1.09-4.94-1.09-10.54-1.09h-3c-5.6,0-8.4,0-10.54,1.09-1.88.96-3.41,2.49-4.37,4.37-1.09,2.14-1.09,4.94-1.09,10.54v89ZM770,490v19c0,5.6,0,8.4,1.09,10.54.96,1.88,2.49,3.41,4.37,4.37,2.14,1.09,4.94,1.09,10.54,1.09h3c5.6,0,8.4,0,10.54-1.09,1.88-.96,3.41-2.49,4.37-4.37,1.09-2.14,1.09-4.94,1.09-10.54v-19h-35ZM910,875h70v70h-35v-19c0-5.6,0-8.4-1.09-10.54-.96-1.88-2.49-3.41-4.37-4.37-2.14-1.09-4.94-1.09-10.54-1.09h-19v-35ZM910,840h-19c-5.6,0-8.4,0-10.54,1.09-1.88.96-3.41,2.49-4.37,4.37-1.09,2.14-1.09,4.94-1.09,10.54v3c0,5.6,0,8.4,1.09,10.54.96,1.88,2.49,3.41,4.37,4.37,2.14,1.09,4.94,1.09,10.54,1.09h19v-35ZM910,840h19c5.6,0,8.4,0,10.54-1.09,1.88-.96,3.41-2.49,4.37-4.37,1.09-2.14,1.09-4.94,1.09-10.54v-38c0-5.6,0-8.4-1.09-10.54-.96-1.88-2.49-3.41-4.37-4.37-2.14-1.09-4.94-1.09-10.54-1.09h-3c-5.6,0-8.4,0-10.54,1.09-1.88.96-3.41,2.49-4.37,4.37-1.09,2.14-1.09,4.94-1.09,10.54v54ZM700,910h19c5.6,0,8.4,0,10.54-1.09,1.88-.96,3.41-2.49,4.37-4.37,1.09-2.14,1.09-4.94,1.09-10.54v-3c0-5.6,0-8.4-1.09-10.54-.96-1.88-2.49-3.41-4.37-4.37-2.14-1.09-4.94-1.09-10.54-1.09h-19v35ZM560,945h-54c-5.6,0-8.4,0-10.54-1.09-1.88-.96-3.41-2.49-4.37-4.37-1.09-2.14-1.09-4.94-1.09-10.54v-3c0-5.6,0-8.4,1.09-10.54.96-1.88,2.49-3.41,4.37-4.37,2.14-1.09,4.94-1.09,10.54-1.09h38c5.6,0,8.4,0,10.54,1.09,1.88.96,3.41,2.49,4.37,4.37,1.09,2.14,1.09,4.94,1.09,10.54v19ZM455,980v-19c0-5.6,0-8.4-1.09-10.54-.96-1.88-2.49-3.41-4.37-4.37-2.14-1.09-4.94-1.09-10.54-1.09h-38c-5.6,0-8.4,0-10.54,1.09-1.88.96-3.41,2.49-4.37,4.37-1.09,2.14-1.09,4.94-1.09,10.54v3c0,5.6,0,8.4,1.09,10.54.96,1.88,2.49,3.41,4.37,4.37,2.14,1.09,4.94,1.09,10.54,1.09h54ZM315,875h19c5.6,0,8.4,0,10.54,1.09,1.88.96,3.41,2.49,4.37,4.37,1.09,2.14,1.09,4.94,1.09,10.54v3c0,5.6,0,8.4-1.09,10.54-.96,1.88-2.49,3.41-4.37,4.37-2.14,1.09-4.94,1.09-10.54,1.09h-3c-5.6,0-8.4,0-10.54-1.09-1.88-.96-3.41-2.49-4.37-4.37-1.09-2.14-1.09-4.94-1.09-10.54v-19ZM350,805v19c0,5.6,0,8.4-1.09,10.54-.96,1.88-2.49,3.41-4.37,4.37-2.14,1.09-4.94,1.09-10.54,1.09h-19v-19c0-5.6,0-8.4,1.09-10.54.96-1.88,2.49-3.41,4.37-4.37,2.14-1.09,4.94-1.09,10.54-1.09h19ZM350,805v-19c0-5.6,0-8.4,1.09-10.54.96-1.88,2.49-3.41,4.37-4.37,2.14-1.09,4.94-1.09,10.54-1.09h3c5.6,0,8.4,0,10.54,1.09,1.88.96,3.41,2.49,4.37,4.37,1.09,2.14,1.09,4.94,1.09,10.54v3c0,5.6,0,8.4-1.09,10.54-.96,1.88-2.49,3.41-4.37,4.37-2.14,1.09-4.94,1.09-10.54,1.09h-19ZM245,385v-35h105v19c0,5.6,0,8.4-1.09,10.54-.96,1.88-2.49,3.41-4.37,4.37-2.14,1.09-4.94,1.09-10.54,1.09h-89ZM245,385v19c0,5.6,0,8.4-1.09,10.54-.96,1.88-2.49,3.41-4.37,4.37-2.14,1.09-4.94,1.09-10.54,1.09h-3c-5.6,0-8.4,0-10.54-1.09-1.88-.96-3.41-2.49-4.37-4.37-1.09-2.14-1.09-4.94-1.09-10.54v-3c0-5.6,0-8.4,1.09-10.54.96-1.88,2.49-3.41,4.37-4.37,2.14-1.09,4.94-1.09,10.54-1.09h19ZM280,280h19c5.6,0,8.4,0,10.54,1.09,1.88.96,3.41,2.49,4.37,4.37,1.09,2.14,1.09,4.94,1.09,10.54v3c0,5.6,0,8.4-1.09,10.54-.96,1.88-2.49,3.41-4.37,4.37-2.14,1.09-4.94,1.09-10.54,1.09h-3c-5.6,0-8.4,0-10.54-1.09-1.88-.96-3.41-2.49-4.37-4.37-1.09-2.14-1.09-4.94-1.09-10.54v-19ZM595,35h19c5.6,0,8.4,0,10.54,1.09,1.88.96,3.41,2.49,4.37,4.37,1.09,2.14,1.09,4.94,1.09,10.54v3c0,5.6,0,8.4-1.09,10.54-.96,1.88-2.49,3.41-4.37,4.37-2.14,1.09-4.94,1.09-10.54,1.09h-3c-5.6,0-8.4,0-10.54-1.09-1.88-.96-3.41-2.49-4.37-4.37-1.09-2.14-1.09-4.94-1.09-10.54v-19ZM805,840h19c5.6,0,8.4,0,10.54-1.09,1.88-.96,3.41-2.49,4.37-4.37,1.09-2.14,1.09-4.94,1.09-10.54v-73c0-5.6,0-8.4-1.09-10.54-.96-1.88-2.49-3.41-4.37-4.37-2.14-1.09-4.94-1.09-10.54-1.09h-73c-5.6,0-8.4,0-10.54,1.09-1.88.96-3.41,2.49-4.37,4.37-1.09,2.14-1.09,4.94-1.09,10.54v73c0,5.6,0,8.4,1.09,10.54.96,1.88,2.49,3.41,4.37,4.37,2.14,1.09,4.94,1.09,10.54,1.09h54ZM665,16c0-5.6,0-8.4,1.09-10.54.96-1.88,2.49-3.41,4.37-4.37C672.6,0,675.4,0,681,0h38C724.6,0,727.4,0,729.54,1.09c1.88.96,3.41,2.49,4.37,4.37,1.09,2.14,1.09,4.94,1.09,10.54v3c0,5.6,0,8.4-1.09,10.54-.96,1.88-2.49,3.41-4.37,4.37-2.14,1.09-4.94,1.09-10.54,1.09h-38c-5.6,0-8.4,0-10.54-1.09-1.88-.96-3.41-2.49-4.37-4.37-1.09-2.14-1.09-4.94-1.09-10.54v-3ZM595,121c0-5.6,0-8.4,1.09-10.54.96-1.88,2.49-3.41,4.37-4.37,2.14-1.09,4.94-1.09,10.54-1.09h3c5.6,0,8.4,0,10.54,1.09,1.88.96,3.41,2.49,4.37,4.37,1.09,2.14,1.09,4.94,1.09,10.54v3c0,5.6,0,8.4-1.09,10.54-.96,1.88-2.49,3.41-4.37,4.37-2.14,1.09-4.94,1.09-10.54,1.09h-3c-5.6,0-8.4,0-10.54-1.09-1.88-.96-3.41-2.49-4.37-4.37-1.09-2.14-1.09-4.94-1.09-10.54v-3ZM735,121c0-5.6,0-8.4-1.09-10.54-.96-1.88-2.49-3.41-4.37-4.37-2.14-1.09-4.94-1.09-10.54-1.09h-3c-5.6,0-8.4,0-10.54,1.09-1.88.96-3.41,2.49-4.37,4.37-1.09,2.14-1.09,4.94-1.09,10.54v19h-19c-5.6,0-8.4,0-10.54,1.09-1.88.96-3.41,2.49-4.37,4.37-1.09,2.14-1.09,4.94-1.09,10.54v3c0,5.6,0,8.4-1.09,10.54-.96,1.88-2.49,3.41-4.37,4.37-2.14,1.09-4.94,1.09-10.54,1.09h-38c-5.6,0-8.4,0-10.54,1.09-1.88.96-3.41,2.49-4.37,4.37-1.09,2.14-1.09,4.94-1.09,10.54v19h-19c-5.6,0-8.4,0-10.54,1.09-1.88.96-3.41,2.49-4.37,4.37-1.09,2.14-1.09,4.94-1.09,10.54v108c0,5.6,0,8.4,1.09,10.54.96,1.88,2.49,3.41,4.37,4.37,2.14,1.09,4.94,1.09,10.54,1.09h3c5.6,0,8.4,0,10.54-1.09,1.88-.96,3.41-2.49,4.37-4.37,1.09-2.14,1.09-4.94,1.09-10.54v-3c0-5.6,0-8.4,1.09-10.54.96-1.88,2.49-3.41,4.37-4.37,2.14-1.09,4.94-1.09,10.54-1.09h54v19c0,5.6,0,8.4,1.09,10.54.96,1.88,2.49,3.41,4.37,4.37,2.14,1.09,4.94,1.09,10.54,1.09h38c5.6,0,8.4,0,10.54-1.09,1.88-.96,3.41-2.49,4.37-4.37,1.09-2.14,1.09-4.94,1.09-10.54v-3c0-5.6,0-8.4-1.09-10.54-.96-1.88-2.49-3.41-4.37-4.37-2.14-1.09-4.94-1.09-10.54-1.09h-54v-19c0-5.6,0-8.4,1.09-10.54.96-1.88,2.49-3.41,4.37-4.37,2.14-1.09,4.94-1.09,10.54-1.09h3c5.6,0,8.4,0,10.54-1.09,1.88-.96,3.41-2.49,4.37-4.37,1.09-2.14,1.09-4.94,1.09-10.54v-19h19c5.6,0,8.4,0,10.54-1.09,1.88-.96,3.41-2.49,4.37-4.37,1.09-2.14,1.09-4.94,1.09-10.54v-3c0-5.6,0-8.4-1.09-10.54-.96-1.88-2.49-3.41-4.37-4.37-2.14-1.09-4.94-1.09-10.54-1.09h-19v-70h19c5.6,0,8.4,0,10.54-1.09,1.88-.96,3.41-2.49,4.37-4.37,1.09-2.14,1.09-4.94,1.09-10.54v-3ZM700,210v35h-19c-5.6,0-8.4,0-10.54-1.09-1.88-.96-3.41-2.49-4.37-4.37-1.09-2.14-1.09-4.94-1.09-10.54v-3c0-5.6,0-8.4,1.09-10.54.96-1.88,2.49-3.41,4.37-4.37,2.14-1.09,4.94-1.09,10.54-1.09h19ZM595,210v19c0,5.6,0,8.4,1.09,10.54.96,1.88,2.49,3.41,4.37,4.37,2.14,1.09,4.94,1.09,10.54,1.09h3c5.6,0,8.4,0,10.54-1.09,1.88-.96,3.41-2.49,4.37-4.37,1.09-2.14,1.09-4.94,1.09-10.54v-3c0-5.6,0-8.4-1.09-10.54-.96-1.88-2.49-3.41-4.37-4.37-2.14-1.09-4.94-1.09-10.54-1.09h-19ZM945,296c0-5.6,0-8.4,1.09-10.54.96-1.88,2.49-3.41,4.37-4.37,2.14-1.09,4.94-1.09,10.54-1.09h38c5.6,0,8.4,0,10.54,1.09,1.88.96,3.41,2.49,4.37,4.37,1.09,2.14,1.09,4.94,1.09,10.54v38c0,5.6,0,8.4-1.09,10.54-.96,1.88-2.49,3.41-4.37,4.37-2.14,1.09-4.94,1.09-10.54,1.09h-19v-19c0-5.6,0-8.4-1.09-10.54-.96-1.88-2.49-3.41-4.37-4.37-2.14-1.09-4.94-1.09-10.54-1.09h-3c-5.6,0-8.4,0-10.54-1.09-1.88-.96-3.41-2.49-4.37-4.37-1.09-2.14-1.09-4.94-1.09-10.54v-3ZM980,385h-54c-5.6,0-8.4,0-10.54-1.09-1.88-.96-3.41-2.49-4.37-4.37-1.09-2.14-1.09-4.94-1.09-10.54v-3c0-5.6,0-8.4,1.09-10.54.96-1.88,2.49-3.41,4.37-4.37,2.14-1.09,4.94-1.09,10.54-1.09h54v35ZM980,385h19c5.6,0,8.4,0,10.54,1.09,1.88.96,3.41,2.49,4.37,4.37,1.09,2.14,1.09,4.94,1.09,10.54v3c0,5.6,0,8.4-1.09,10.54-.96,1.88-2.49,3.41-4.37,4.37-2.14,1.09-4.94,1.09-10.54,1.09h-3c-5.6,0-8.4,0-10.54-1.09-1.88-.96-3.41-2.49-4.37-4.37-1.09-2.14-1.09-4.94-1.09-10.54v-19ZM665,401c0-5.6,0-8.4,1.09-10.54.96-1.88,2.49-3.41,4.37-4.37,2.14-1.09,4.94-1.09,10.54-1.09h3c5.6,0,8.4,0,10.54,1.09,1.88.96,3.41,2.49,4.37,4.37,1.09,2.14,1.09,4.94,1.09,10.54v3c0,5.6,0,8.4-1.09,10.54-.96,1.88-2.49,3.41-4.37,4.37-2.14,1.09-4.94,1.09-10.54,1.09h-3c-5.6,0-8.4,0-10.54-1.09-1.88-.96-3.41-2.49-4.37-4.37-1.09-2.14-1.09-4.94-1.09-10.54v-3ZM0,646c0-5.6,0-8.4,1.09-10.54.96-1.88,2.49-3.41,4.37-4.37,2.14-1.09,4.94-1.09,10.54-1.09h3c5.6,0,8.4,0,10.54,1.09,1.88.96,3.41,2.49,4.37,4.37,1.09,2.14,1.09,4.94,1.09,10.54v3c0,5.6,0,8.4-1.09,10.54-.96,1.88-2.49,3.41-4.37,4.37-2.14,1.09-4.94,1.09-10.54,1.09h-3c-5.6,0-8.4,0-10.54-1.09-1.88-.96-3.41-2.49-4.37-4.37-1.09-2.14-1.09-4.94-1.09-10.54v-3ZM805,786c0-5.6,0-8.4-1.09-10.54-.96-1.88-2.49-3.41-4.37-4.37-2.14-1.09-4.94-1.09-10.54-1.09h-3c-5.6,0-8.4,0-10.54,1.09-1.88.96-3.41,2.49-4.37,4.37-1.09,2.14-1.09,4.94-1.09,10.54v3c0,5.6,0,8.4,1.09,10.54.96,1.88,2.49,3.41,4.37,4.37,2.14,1.09,4.94,1.09,10.54,1.09h3c5.6,0,8.4,0,10.54-1.09,1.88-.96,3.41-2.49,4.37-4.37,1.09-2.14,1.09-4.94,1.09-10.54v-3ZM630,996c0-5.6,0-8.4,1.09-10.54.96-1.88,2.49-3.41,4.37-4.37,2.14-1.09,4.94-1.09,10.54-1.09h3c5.6,0,8.4,0,10.54,1.09,1.88.96,3.41,2.49,4.37,4.37,1.09,2.14,1.09,4.94,1.09,10.54v3c0,5.6,0,8.4-1.09,10.54-.96,1.88-2.49,3.41-4.37,4.37-2.14,1.09-4.94,1.09-10.54,1.09h-3c-5.6,0-8.4,0-10.54-1.09-1.88-.96-3.41-2.49-4.37-4.37-1.09-2.14-1.09-4.94-1.09-10.54v-3Z"/>
  <g>
    <g>
      <path d="M180,0C80.59,0,0,80.59,0,180v25c0,22.09,17.91,40,40,40h165c22.09,0,40-17.91,40-40V40C245,17.91,227.09,0,205,0h-25ZM208.25,198.25c0,5.52-4.48,10-10,10H46.75c-5.52,0-10-4.48-10-10v-12.5c0-82.29,66.71-149,149-149h12.5c5.52,0,10,4.48,10,10v151.5Z"/>
      <path d="M175,165v-85c0-5.52-4.49-10.05-9.99-9.53-50.02,4.72-89.82,44.53-94.54,94.54-.52,5.5,4.01,9.99,9.53,9.99h85c5.52,0,10-4.48,10-10Z"/>
    </g>
    <g>
      <path d="M1015,180C1015,80.59,934.41,0,835,0h-25c-22.09,0-40,17.91-40,40v165c0,22.09,17.91,40,40,40h165c22.09,0,40-17.91,40-40v-25ZM816.75,208.25c-5.52,0-10-4.48-10-10V46.75c0-5.52,4.48-10,10-10h12.5c82.29,0,149,66.71,149,149v12.5c0,5.52-4.48,10-10,10h-151.5Z"/>
      <path d="M850,175h85c5.52,0,10.05-4.49,9.53-9.99-4.72-50.02-44.53-89.82-94.54-94.54-5.5-.52-9.99,4.01-9.99,9.53v85c0,5.52,4.48,10,10,10Z"/>
    </g>
    <g>
      <path d="M0,835c0,99.41,80.59,180,180,180h25c22.09,0,40-17.91,40-40v-165c0-22.09-17.91-40-40-40H40C17.91,770,0,787.91,0,810v25ZM198.25,806.75c5.52,0,10,4.48,10,10v151.5c0,5.52-4.48,10-10,10h-12.5c-82.29,0-149-66.71-149-149v-12.5c0-5.52,4.48-10,10-10h151.5Z"/>
      <path d="M165,840h-85c-5.52,0-10.05,4.49-9.53,9.99,4.72,50.02,44.53,89.82,94.54,94.54,5.5.52,9.99-4.01,9.99-9.53v-85c0-5.52-4.48-10-10-10Z"/>
    </g>
  </g>
</svg>