<?xml version="1.0" encoding="UTF-8"?>
<svg id="Layer_1" xmlns="http://www.w3.org/2000/svg" version="1.1" viewBox="0 0 245 245">
  <!-- Generator: Adobe Illustrator 29.5.1, SVG Export Plug-In . SVG Version: 2.1.0 Build 141)  -->
  <path d="M0,65c0,99.4,80.6,180,180,180h25c22.1,0,40-17.9,40-40V40c0-22.1-17.9-40-40-40H40C17.9,0,0,17.9,0,40v25ZM198.2,36.8c5.5,0,10,4.5,10,10v151.5c0,5.5-4.5,10-10,10h-12.5c-82.3,0-149-66.7-149-149v-12.5c0-5.5,4.5-10,10-10h151.5Z"/>
  <path d="M165,70h-85c-5.5,0-10,4.5-9.5,10,4.7,50,44.5,89.8,94.5,94.5,5.5.5,10-4,10-9.5v-85c0-5.5-4.5-10-10-10Z"/>
</svg>